<svg width="1392" height="560" viewBox="0 0 1392 560" fill="none" xmlns="http://www.w3.org/2000/svg">
<path d="M-214.376 336.341C86.4923 347.459 197.378 304.992 242.278 263.059C292.384 216.259 282.745 149.155 326.646 156.012C354.756 160.401 384.696 191.984 439.167 258.453C604.353 460.013 601.455 501.954 681.591 532.878C793.848 576.209 877.097 523.812 1053.44 569.071C1182.96 602.315 1281.01 667.262 1345.61 719.405" stroke="white" stroke-width="0.695685" stroke-miterlimit="10"/>
<path d="M-219.887 328.546C72.4517 338.973 188.649 299.861 235.815 261.885C288.523 219.446 278.547 155.686 321.787 163.495C349.587 168.515 378.937 199.502 431.517 263.612C591.318 458.419 589.743 501.16 669.298 531.371C782.295 574.068 863.334 515.941 1041.91 559.098C1045.8 560.039 1049.63 560.987 1053.46 561.981C1179.76 594.83 1279.25 660.086 1345.36 712.325" stroke="white" stroke-width="0.695685" stroke-miterlimit="10"/>
<path d="M-225.37 320.774C58.424 330.513 179.826 294.842 229.375 260.729C284.602 222.703 274.38 162.23 316.948 170.982C344.445 176.633 373.209 207.028 423.883 268.772C578.265 456.811 577.952 500.47 657.042 529.861C770.643 572.077 849.654 508.062 1030.42 549.148C1034.39 550.049 1038.34 550.946 1042.28 551.93C1170.83 584.065 1275.64 651.407 1345.13 705.25" stroke="white" stroke-width="0.695685" stroke-miterlimit="10"/>
<path d="M-230.864 313.017C44.4368 322.063 170.839 289.939 222.931 259.58C280.53 226.009 270.221 168.778 312.095 178.459C339.302 184.748 367.444 214.531 416.243 273.92C565.229 455.217 566.222 499.706 644.781 528.337C759.059 569.986 836.003 500.167 1018.93 539.214C1022.99 540.08 1027.05 540.951 1031.08 541.89C1162.02 572.428 1272 642.73 1344.86 698.166" stroke="white" stroke-width="0.695685" stroke-miterlimit="10"/>
<path d="M-236.688 305.445C30.1649 313.797 161.386 285.259 216.239 258.524C276.002 229.397 265.829 175.34 307.009 185.943C333.935 192.874 361.474 222.068 408.406 279.146C552.055 453.832 554.362 499.186 632.407 527.078C747.428 568.186 822.302 492.492 1007.42 529.541C1011.57 530.376 1015.73 531.213 1019.89 532.123C1153.16 561.547 1268.42 634.383 1344.69 691.456" stroke="white" stroke-width="0.695685" stroke-miterlimit="10"/>
<path d="M-242.502 297.892C15.9126 305.55 151.668 280.684 209.571 257.483C271.185 232.792 261.444 181.907 301.939 193.424C328.592 201.006 355.516 229.601 400.582 284.371C538.907 452.457 542.532 498.668 620.055 525.829C735.81 566.384 808.635 484.808 995.925 519.904C1000.18 520.701 1004.44 521.494 1008.71 522.386C1144.3 550.713 1264.87 626.068 1344.52 684.765" stroke="white" stroke-width="0.695685" stroke-miterlimit="10"/>
<path d="M-248.309 290.359C1.66368 297.316 141.599 276.194 202.888 256.445C265.943 236.126 257.083 188.488 296.851 200.899C323.24 209.133 349.545 237.133 392.743 289.589C525.742 451.081 530.7 498.145 607.689 524.578C724.207 564.582 794.968 477.112 984.423 510.278C988.791 511.043 993.135 511.795 997.512 512.661C1135.41 539.9 1261.28 617.762 1344.32 678.078" stroke="white" stroke-width="0.695685" stroke-miterlimit="10"/>
<path d="M-254.118 282.845C-12.5787 289.103 119.283 263.221 196.216 255.419C246.258 231.556 252.715 195.074 291.772 208.369C317.895 217.263 343.584 244.649 384.916 294.819C512.59 449.724 518.88 497.631 595.336 523.345C712.614 562.788 781.318 469.419 972.933 500.685C977.389 501.412 981.85 502.131 986.343 502.97C1126.55 529.144 1257.74 609.487 1344.16 671.425" stroke="white" stroke-width="0.695685" stroke-miterlimit="10"/>
<path d="M-259.929 275.349C-26.8137 280.909 108.047 257.369 189.542 254.401C239.575 233.779 248.341 201.665 286.688 215.836C312.548 225.392 337.615 252.16 377.086 300.025C499.421 448.348 507.072 497.097 582.99 522.098C701.034 560.972 767.674 461.7 961.455 491.094C966.006 491.784 970.567 492.467 975.177 493.28C1117.7 518.403 1254.16 601.206 1343.99 664.764" stroke="white" stroke-width="0.695685" stroke-miterlimit="10"/>
<path d="M-265.735 267.873C-41.0437 272.736 96.8149 251.536 182.869 253.392C232.893 236.004 243.968 208.261 281.606 223.296C307.199 233.518 331.651 259.671 369.258 305.237C486.3 447.004 495.276 496.569 570.647 520.862C689.472 559.162 754.031 453.983 949.988 481.533C954.635 482.187 959.3 482.836 964.022 483.622C1108.86 507.706 1250.61 592.956 1343.82 658.129" stroke="white" stroke-width="0.695685" stroke-miterlimit="10"/>
<path d="M-271.536 260.418C-55.26 264.583 85.5908 245.718 176.201 252.394C226.214 238.235 239.586 214.861 276.518 230.749C301.841 241.643 325.685 267.176 361.434 310.441C473.165 445.643 483.489 496.036 558.308 519.629C677.916 557.345 740.391 446.26 938.53 471.993C943.277 472.609 948.041 473.227 952.871 473.982C1100.03 497.044 1247.06 584.726 1343.66 651.509" stroke="white" stroke-width="0.695685" stroke-miterlimit="10"/>
<path d="M-277.334 252.979C-69.4825 256.448 74.3854 239.919 169.543 251.41C219.544 240.475 235.201 221.465 271.432 238.202C296.476 249.769 319.718 274.676 353.605 315.657C460.031 444.311 471.706 495.514 545.981 518.417C666.382 555.545 726.752 438.556 927.083 462.492C931.93 463.072 936.777 463.652 941.735 464.391C1091.21 486.44 1243.52 576.538 1343.5 644.93" stroke="white" stroke-width="0.695685" stroke-miterlimit="10"/>
<path d="M-283.132 245.559C-83.6865 248.331 63.1586 234.127 162.881 250.414C212.87 242.697 230.795 228.05 266.356 245.63C291.112 257.87 313.757 282.152 345.788 320.848C446.933 442.968 459.944 494.973 533.653 517.188C654.851 553.714 713.105 430.819 915.651 452.992C920.59 453.532 925.558 454.086 930.629 454.79C1082.43 475.848 1240.01 568.337 1343.37 638.342" stroke="white" stroke-width="0.695685" stroke-miterlimit="10"/>
<path d="M-288.916 238.158C-97.8893 240.227 51.949 228.351 156.223 249.434C206.194 244.926 226.377 234.631 261.273 253.053C285.737 265.968 307.795 289.621 337.972 326.034C433.804 441.628 448.183 494.438 521.336 515.971C643.342 551.89 699.459 423.083 904.226 443.518C909.266 444.02 914.337 444.543 919.507 445.216C1073.64 465.283 1236.49 560.174 1343.25 631.782" stroke="white" stroke-width="0.695685" stroke-miterlimit="10"/>
<path d="M-294.72 230.761C-112.085 232.134 40.7513 222.579 149.572 248.444C199.529 247.142 221.952 241.195 256.193 260.46C280.35 274.047 301.836 297.075 330.139 331.208C420.683 440.291 436.418 493.887 509.012 514.753C631.825 550.056 685.792 415.361 892.807 434.058C897.942 434.523 903.117 435.017 908.395 435.66C1064.88 454.753 1232.97 552.025 1343.1 625.229" stroke="white" stroke-width="0.695685" stroke-miterlimit="10"/>
<path d="M-300.515 223.368C-126.275 224.04 29.5547 216.802 142.919 247.445C192.866 249.342 217.511 247.732 251.116 267.832C274.958 282.092 295.876 304.497 322.351 336.364C407.608 438.949 424.701 493.332 496.742 513.539C620.366 548.214 672.166 407.614 881.441 424.619C886.672 425.046 891.951 425.51 897.363 426.131C1056.18 444.244 1229.52 543.888 1343.02 618.689" stroke="white" stroke-width="0.695685" stroke-miterlimit="10"/>
<path d="M-306.434 215.397C-140.524 215.329 18.3466 210.358 136.315 245.811C186.241 250.888 213.127 253.621 246.129 274.595C269.658 289.551 290.044 311.376 314.688 341.027C394.736 437.317 413.215 492.594 484.733 512.17C609.229 546.249 658.802 399.428 870.443 414.719C875.773 415.104 881.156 415.54 886.661 416.127C1047.92 433.305 1226.62 535.492 1343.56 612.034" stroke="white" stroke-width="0.695685" stroke-miterlimit="10"/>
<path d="M-312.356 207.398C-154.781 206.589 7.14067 203.88 129.711 244.169C179.665 252.455 208.741 259.513 241.146 281.365C264.363 297.01 284.219 318.266 307.028 345.709C381.861 435.686 401.73 491.856 472.723 510.808C598.098 544.285 645.422 391.227 859.445 404.823C864.869 405.166 870.363 405.576 875.978 406.132C1039.68 422.351 1223.7 527.072 1344.11 605.364" stroke="white" stroke-width="0.695685" stroke-miterlimit="10"/>
<path d="M-318.279 199.404C-169.05 197.868 -9.86908 219.966 123.112 242.554C172.874 251.006 204.351 265.451 236.175 288.186C259.065 304.528 278.401 325.205 299.379 350.426C368.986 434.076 390.242 491.123 460.712 509.456C586.958 542.299 632.018 382.998 848.44 394.901C853.958 395.206 859.57 395.589 865.291 396.113C1031.43 411.383 1220.78 518.632 1344.66 598.663" stroke="white" stroke-width="0.695685" stroke-miterlimit="10"/>
<path d="M-324.196 191.411C-183.296 189.127 -19.1771 195.39 116.522 240.944C165.474 257.378 199.962 271.405 231.217 295.031C253.772 312.068 272.59 332.162 291.735 355.157C356.119 432.461 378.754 490.377 448.704 508.095C575.816 540.295 618.597 374.753 837.433 384.975C843.054 385.239 848.77 385.6 854.607 386.091C1023.29 400.584 1217.88 510.192 1345.23 591.964" stroke="white" stroke-width="0.695685" stroke-miterlimit="10"/>
<path d="M-330.123 183.411C-197.579 180.388 -28.861 186.611 109.923 239.348C159.152 258.056 195.558 277.386 226.254 301.903C248.465 319.635 266.778 339.151 284.083 359.91C343.233 430.852 367.23 489.76 436.681 506.742C564.7 538.044 605.017 366.328 826.414 375.044C832.125 375.26 837.954 375.599 843.903 376.06C1015 389.53 1214.97 501.736 1345.76 585.243" stroke="white" stroke-width="0.695685" stroke-miterlimit="10"/>
<path d="M-336.051 175.406C-211.855 171.655 -37.7064 178.084 103.324 237.775C315.927 327.766 308.689 477.631 424.638 505.405C556.814 537.067 593.587 348.862 833.203 366.055C1006.72 378.505 1212.06 493.318 1346.29 578.566" stroke="white" stroke-width="0.695685" stroke-miterlimit="10"/>
</svg>
